<svg xmlns="http://www.w3.org/2000/svg" width="47" height="47" viewBox="0 0 47 47"><g transform="translate(0.004 -0.223)"><rect width="47" height="47" rx="23.5" transform="translate(-0.004 0.223)" fill="#7d3daf"/><g transform="translate(7.998 7.471)"><path d="M107.984,79.668h0c-.756-3.057-4.869-6.317-8-7h0a39.175,39.175,0,0,0-15,0h0a10.36,10.36,0,0,0-7,7h0a30.475,30.475,0,0,0,0,13h0c.725,2.927,3.986,6.139,7,7v3c0,1.235,1.144,1.891,2,1l3-3c.75.042,2.25,0,3,0a34.757,34.757,0,0,0,7-1h0c3.131-.683,7.244-3.943,8-7h0A30.475,30.475,0,0,0,107.984,79.668Zm-3,12a8.041,8.041,0,0,1-5,5,37.149,37.149,0,0,1-8,1c-.054,0,.038-.039,0,0-.385.395-3,3-3,3l-3,2c-.2.2,0,.283,0,0v-6c0-.093.092.018,0,0h0c-2.057-.458-5.494-3.005-6-5a24.28,24.28,0,0,1,0-11c.506-1.995,3.943-4.542,6-5a36.855,36.855,0,0,1,14,0,8.038,8.038,0,0,1,5,5A24.254,24.254,0,0,1,104.984,91.668Z" transform="translate(-76.986 -71.916)" fill="#fff"/><path d="M161.8,155.7c-.316-.1-.72.116-1,0-2.9-1.2-4.886-3.62-7-6a17.321,17.321,0,0,1-3-4c-.377-.767-.676-1.208-1-2a1.9,1.9,0,0,1,0-2,9.676,9.676,0,0,1,2-2c.468-.225.658.6,1,1,.738.857,1.451,1.007,2,2,.338.611.612,1.584,0,2-.149.1-.861.886-1,1-.122.1.083-.135,0,0a1.378,1.378,0,0,0,0,1,6.278,6.278,0,0,0,4,4c.334.139.615,1.045,1,1,.645-.075.548-1.631,1-2a2.138,2.138,0,0,1,2,0c.476.3.542.673,1,1s1.585.635,2,1c.4.351.225,1.523,0,2a4.49,4.49,0,0,1-2,2c-.244.131-.725-.085-1,0C161.48,155.607,162.071,155.618,161.8,155.7Z" transform="translate(-141.798 -132.951)" fill="#fff"/><path d="M222.357,131.022c3.794.106,6.332,3.25,7,7,.114.639-.051,1.351,0,2,.021.273.294,0,0,0s.02.273,0,0c-.039-.54-.926-1.465-1-2-.393-2.826-2.187-5.5-5-6-.423-.076-.571.045-1,0-.271-.028-.94.337-1,0-.05-.282-.269-.986,0-1,.073,0,.927,0,1,0C226.151,131.128,222.284,131.022,222.357,131.022Z" transform="translate(-206.36 -125.27)" fill="#fff"/><path d="M233.368,156.51c-.006.047.028-.1,0,0-.1.381.133.384,0,0-.039-.114,0,.123,0,0,0-.8-.595-1.3-1-2a5.613,5.613,0,0,0-2-2c-.451-.221-.505-.918-1-1-.216-.036-.783.03-1,0-.263-.037-.012.259,0,0,.012-.243-.265-1.015,0-1a9.019,9.019,0,0,1,3,1c1.574.834,1.738,2.243,2,4,.012.08-.006-.08,0,0,.015.2-.015.74,0,1C233.362,156.558,233.353,156.25,233.368,156.51Z" transform="translate(-212.37 -142.758)" fill="#fff"/><path d="M236.339,174.436c-.317.006.033-.709,0-1-.023-.2-.952.2-1,0-.1-.389.327-.762,0-1-.154-.113-.817.053-1,0-.233-.067.232-.943,0-1-.252-.062-1.04.237-1,0,.036-.215.765-.017,1,0,1.471.106,1.85.269,2,2a8.844,8.844,0,0,1,0,1c-.046.2.144-.01,0,0C236.021,174.442,236.483,174.426,236.339,174.436Z" transform="translate(-217.341 -160.684)" fill="#fff"/></g></g></svg>