<svg xmlns="http://www.w3.org/2000/svg" width="35.567" height="29.528"><g fill="#6e6eaf"><path data-name="Контур 63" d="M6.564 7.321a1.733 1.733 0 00-1.731 1.731v.266H3.539a.521.521 0 00-.52.489l-.445 7.211a.521.521 0 00.52.553h6.947a.521.521 0 00.52-.553l-.448-7.212a.521.521 0 00-.52-.489h-1.3v-.266a1.733 1.733 0 00-1.731-1.73zm-.689 1.731a.689.689 0 011.377 0v.266H5.874zm3.224 1.308l.383 6.17H3.645l.383-6.17h.805v.715a.521.521 0 001.042 0v-.715h1.377v.715a.521.521 0 001.042 0v-.715z"/><path data-name="Контур 64" d="M32.719 22.948a.521.521 0 00.164-1.016l-6.3-2.084a.521.521 0 10-.327.989l6.3 2.084a.521.521 0 00.163.027z"/><path data-name="Контур 65" d="M3.091 20.864H9.93a.521.521 0 100-1.042H3.091a.521.521 0 100 1.042z"/><path data-name="Контур 66" d="M3.091 24.157H9.93a.521.521 0 100-1.042H3.091a.521.521 0 100 1.042z"/><path data-name="Контур 67" d="M16.911 13.543a.163.163 0 01-.076.079l-1.313.543a1.183 1.183 0 00-.719.944.882.882 0 00.357.835l.861.609-.213 1.3a.867.867 0 00.856 1.048 1.076 1.076 0 00.664-.242l1.175-.932.018-.012 1.141.294a1.041 1.041 0 00.962-.274 1.123 1.123 0 00.363-1l-.222-1.235a.141.141 0 01.026-.047l.95-1.181a1.035 1.035 0 00.144-1.149.857.857 0 00-.874-.428l-1.213.149-.525-.923a.851.851 0 00-.8-.428 1.152 1.152 0 00-.973.7zm.955.416l.587-1.347.006-.013.494.869a.859.859 0 00.871.422l.983-.121-.828 1.029a1.092 1.092 0 00-.242.872l.222 1.237a.184.184 0 01-.071.084l-1.142-.294a1.037 1.037 0 00-.892.214l-.962.764.167-1.02a.9.9 0 00-.349-.89l-.844-.6a.136.136 0 01.052-.041l1.313-.543a1.2 1.2 0 00.635-.621z"/><path data-name="Контур 68" d="M35.2 3.497L24.079.029a.528.528 0 00-.344 0l-4.413 1.376a.521.521 0 10.31.995l3.757-1.171v9.491a.515.515 0 000 .064v14.362l-10.096 3.151V4.378L17.36 3.11a.521.521 0 10-.31-.995l-4.358 1.359H.521A.521.521 0 000 3.997v18.24a.521.521 0 101.042 0V4.516h11.209v23.966H1.042v-3.975a.521.521 0 10-1.042 0v4.5a.521.521 0 00.521.521h12.251a.542.542 0 00.157-.031l10.98-3.425 4.278 1.334a.523.523 0 10.31-1l-4.066-1.268V11.805l10.094 7.661v8.831l-3.757-1.172a.523.523 0 10-.31 1l4.433 1.372a.521.521 0 00.676-.5v-25a.521.521 0 00-.367-.5zm-10.77 7V1.23l10.094 3.148v13.78z"/></g></svg>