<svg xmlns="http://www.w3.org/2000/svg" width="11.862" height="8.341"><path d="M11.758.596l-3.6 3.574 3.6 3.574a1.031 1.031 0 00.1-.447V1.041a1.03 1.03 0 00-.1-.445zM10.82 0H1.043a1.03 1.03 0 00-.447.1l4.6 4.575a1.043 1.043 0 001.474 0L11.27.1a1.03 1.03 0 00-.45-.1zM.1.596a1.03 1.03 0 00-.1.447v6.256a1.03 1.03 0 00.1.447l3.6-3.571z" fill="#3157be"/><path d="M7.669 4.662l-.509.509a1.739 1.739 0 01-2.457 0l-.509-.509-3.6 3.574a1.03 1.03 0 00.447.1h9.777a1.03 1.03 0 00.447-.1z" fill="#3157be"/></svg>