<svg xmlns="http://www.w3.org/2000/svg" width="30.132" height="27.78"><g data-name="Сгруппировать 167"><g data-name="Сгруппировать 166"><path data-name="Контур 69" d="M27.707 10.946a4.638 4.638 0 001.208-1.171 7.215 7.215 0 000-8.016A3.893 3.893 0 0025.776 0H4.355a3.893 3.893 0 00-3.139 1.759 7.215 7.215 0 000 8.016 4.637 4.637 0 001.208 1.171 4.638 4.638 0 00-1.208 1.171 7.215 7.215 0 000 8.016 3.893 3.893 0 003.139 1.759h3.178v5.3a.588.588 0 00.588.588h6.13a.589.589 0 100-1.177H8.71V16.125a6.842 6.842 0 00-1.216-4.008A5.11 5.11 0 007 11.534h18.776a2.753 2.753 0 012.187 1.274 5.661 5.661 0 01.991 3.316V26.6h-8.93a.589.589 0 000 1.177h9.519a.588.588 0 00.588-.588V16.125a6.842 6.842 0 00-1.216-4.008 4.637 4.637 0 00-1.208-1.171zM7.533 20.715H7a5.1 5.1 0 00.492-.582l.039-.056zm0-4.59a5.661 5.661 0 01-.991 3.316 2.753 2.753 0 01-2.187 1.274 2.753 2.753 0 01-2.187-1.275 6.045 6.045 0 010-6.632 2.753 2.753 0 012.187-1.274 2.753 2.753 0 012.187 1.274 5.661 5.661 0 01.991 3.317zm-.991-7.042a2.753 2.753 0 01-2.187 1.274 2.753 2.753 0 01-2.187-1.274 6.045 6.045 0 010-6.632 2.753 2.753 0 012.187-1.274 2.753 2.753 0 012.187 1.274 6.045 6.045 0 010 6.632zm19.234 1.274H7a5.1 5.1 0 00.492-.582 7.215 7.215 0 000-8.016A5.11 5.11 0 007 1.177h18.776a2.753 2.753 0 012.187 1.274 6.045 6.045 0 010 6.632 2.753 2.753 0 01-2.187 1.274z" fill="#6e6eaf"/></g></g><g data-name="Сгруппировать 169"><g data-name="Сгруппировать 168"><path data-name="Контур 70" d="M17.374 26.772a.588.588 0 10.172.416.588.588 0 00-.172-.416z" fill="#6e6eaf"/></g></g><g data-name="Сгруппировать 171"><g data-name="Сгруппировать 170"><path data-name="Контур 71" d="M4.765 15.708a.588.588 0 10.172.416.588.588 0 00-.172-.416z" fill="#6e6eaf"/></g></g><g data-name="Сгруппировать 173"><g data-name="Сгруппировать 172"><path data-name="Контур 72" d="M4.765 5.351a.588.588 0 10.172.416.588.588 0 00-.172-.416z" fill="#6e6eaf"/></g></g><g data-name="Сгруппировать 175"><g data-name="Сгруппировать 174"><path data-name="Контур 73" d="M22.332 2.472h-4.62a.589.589 0 000 1.177h4.62a.589.589 0 000-1.177z" fill="#6e6eaf"/></g></g><g data-name="Сгруппировать 177"><g data-name="Сгруппировать 176"><path data-name="Контур 74" d="M15.489 2.644a.588.588 0 10.172.416.588.588 0 00-.172-.416z" fill="#6e6eaf"/></g></g></svg>