<svg xmlns="http://www.w3.org/2000/svg" width="38.304" height="38.317"><g fill="#6e6eaf"><path data-name="Контур 43" d="M33.207 0a1.916 1.916 0 101.916 1.916A1.916 1.916 0 0033.207 0zm0 2.554a.639.639 0 11.639-.639.639.639 0 01-.639.639z"/><path data-name="Контур 44" d="M35.761 6.386a.637.637 0 00.452-.187l1.277-1.277a.639.639 0 00-.9-.9l-1.277 1.277a.639.639 0 00.452 1.09z"/><path data-name="Контур 45" d="M6.572 7.85a.639.639 0 000 .9l1.277 1.277a.639.639 0 00.9-.9L7.472 7.85a.639.639 0 00-.9 0z"/><path data-name="Контур 46" d="M34.484 16.604h-3.3a1.916 1.916 0 10-3.612 0H17.244l4.7-3.91a1.247 1.247 0 00.437.08 1.272 1.272 0 00.75-.248l2.407-1.749 2.407 1.749a1.276 1.276 0 001.964-1.427l-.91-2.83 2.4-1.749a1.276 1.276 0 00-.75-2.308h-2.973l-.92-2.83a1.276 1.276 0 00-2.427 0l-.919 2.83h-2.976a1.254 1.254 0 00-1.164.753.64.64 0 00-.078.055l-2.559 2.127a1.914 1.914 0 00-2.557 2.125L.23 20.78a.639.639 0 00-.083.9l4.082 4.911a.639.639 0 00.432.228h.059a.638.638 0 00.408-.148l5.727-4.76v15.767a.639.639 0 00.639.639h22.99a.639.639 0 00.639-.639V17.239a.639.639 0 00-.639-.635zm-.639 7.663h-7.663v-6.386h7.663zm0 5.109h-7.663v-3.832h7.663zm-5.109-13.411a.639.639 0 11.639.639.639.639 0 01-.639-.639zm-16.6 9.579h7.663v3.832h-7.666zM23.874 5.489a.639.639 0 00.607-.441l1.062-3.268 1.062 3.268a.639.639 0 00.607.441h3.436l-2.78 2.02a.639.639 0 00-.232.714l1.063 3.267-2.78-2.019a.639.639 0 00-.75 0l-2.78 2.02 1.062-3.268a.639.639 0 00-.232-.714l-2.78-2.02zm-7.91 2.813a.639.639 0 11-.529 1 .634.634 0 00-.083-.175.638.638 0 01.612-.821zM4.799 25.283l-3.265-3.929 13.187-10.957a1.914 1.914 0 002.9-2.412l1.913-1.59a1.344 1.344 0 00.148.125l2.407 1.749-.92 2.83a1.287 1.287 0 00-.046.618zm10.9-7.4h4.1v6.386h-7.666v-3.417zm-3.566 12.77h7.666v6.386h-7.666zm8.94 6.386V17.881h3.832v19.158zm5.109 0v-6.386h7.663v6.386z"/><path data-name="Контур 47" d="M35.575 7.913a.639.639 0 00-.9-.046l-1.9 1.713a.639.639 0 00-.046.9l2.565 2.838a.639.639 0 00.9.046l1.9-1.713a.639.639 0 00.046-.9zm.241 4.077l-1.708-1.89.948-.856 1.708 1.89z"/><path data-name="Контур 48" d="M13.331.777l-2.942 2.445a.639.639 0 00-.083.9l1.633 1.964a.639.639 0 00.9.083l2.941-2.445a.639.639 0 00.083-.9L14.23.86a.639.639 0 00-.899-.083zm-.818 4l-.816-.982 1.959-1.628.816.982z"/><path data-name="Контур 49" d="M21.899 13.598a.639.639 0 000 .9l.639.639a.639.639 0 10.9-.9l-.639-.639a.639.639 0 00-.9 0z"/><path data-name="Контур 50" d="M20.621 2.368a.639.639 0 00.9-.9l-.639-.639a.639.639 0 00-.9.9z"/></g></svg>