<svg xmlns="http://www.w3.org/2000/svg" width="28.887" height="29.702"><g data-name="Сгруппировать 165"><g data-name="Сгруппировать 164" fill="#6e6eaf"><path data-name="Контур 51" d="M4.404 20.661a.578.578 0 00.4-.159c2.8-2.656 5.15-4.961 7.851-7.9a3.181 3.181 0 00.477.075h.046a.58.58 0 00.453-.218c.536-.673 1.108-1.4 1.712-2.171l.561-.715a3.054 3.054 0 002.274-1.063 2.686 2.686 0 00.531-1.354 4.977 4.977 0 011.851-3.7.58.58 0 00-.289-1.077h-.053c-.7 0-4.3.114-5.992 2.371a4.265 4.265 0 00-.836 2.283l-.731.574c-.77.6-1.5 1.175-2.169 1.711a.58.58 0 00-.217.5 3.173 3.173 0 00.075.477c-2.941 2.7-5.245 5.051-7.9 7.85a.58.58 0 00.011.809l1.533 1.533a.578.578 0 00.412.174zm14.368-17a7.1 7.1 0 00-1.178 3.083l-.409-.09-.1-.479a.58.58 0 00-.442-.442l-.478-.105-.1-.479a.579.579 0 00-.261-.352 6.642 6.642 0 012.968-1.131zm-3.819 2.09l.047.01.1.479a.58.58 0 00.442.442l.478.1.1.479a.58.58 0 00.442.442l.478.105.036.163a2.144 2.144 0 01-1.252.435l-1.289-1.289a3.219 3.219 0 01.408-1.361zM13.376 8.52l.519-.408.94.94-.406.518c-.526.67-1.026 1.307-1.5 1.9a1.938 1.938 0 01-1.456-1.456c.6-.465 1.231-.965 1.9-1.49zm-2.52 2.884a3.089 3.089 0 00.688.687c-2.44 2.646-4.612 4.782-7.13 7.182l-.734-.734c2.392-2.517 4.532-4.686 7.176-7.13z"/><path data-name="Контур 52" d="M28.278 11.989c-.951-2.304-2.951-3.913-4.851-3.913a3.04 3.04 0 00-1.056.184h-.009a3.191 3.191 0 01-.909.236 2.987 2.987 0 01.616-.593l.223-.181c.4-.324.9-.727 1.917-1.563a3.23 3.23 0 001.408-3.044A3.091 3.091 0 0023.854.596a6.882 6.882 0 00-3.071-.591 18.149 18.149 0 00-3.839.475l-.109.025a25.536 25.536 0 00-6.634 2.432 18.883 18.883 0 00-8.137 8.338C.227 15.023-.391 18.515.239 21.653a11.343 11.343 0 003.1 5.809c1.34 1.339 4.37 2.239 7.54 2.239a14.718 14.718 0 003.835-.484 25.5 25.5 0 009.9-5.3c5.491-5.494 4.392-10.172 3.664-11.928zm-4.485 11.1a24.583 24.583 0 01-9.382 5 13.558 13.558 0 01-3.533.444c-2.793 0-5.619-.8-6.72-1.9-2.091-2.091-5.009-6.8-1.054-14.855C4.862 8.205 8.715 3.545 17.093 1.635l.11-.025a16.961 16.961 0 013.579-.445c2.3 0 3.54.707 3.683 2.1l.014.081c.017.09.149.974-1 1.919-1.019.834-1.515 1.236-1.913 1.56l-.2.164c-.92.7-1.317 1.411-1.119 2a1.068 1.068 0 001.136.676 4.013 4.013 0 001.4-.316 1.885 1.885 0 01.65-.111c1.22 0 2.911 1.1 3.78 3.2.637 1.536 1.582 5.659-3.414 10.656z"/><path data-name="Контур 53" d="M4.671 12.523a.58.58 0 00.786-.235 15.4 15.4 0 016.356-6.27.58.58 0 10-.553-1.02 16.492 16.492 0 00-6.824 6.74.581.581 0 00.235.785z"/><path data-name="Контур 54" d="M3.759 14.656a.58.58 0 10-.327-.752.579.579 0 00.327.751z"/><path data-name="Контур 55" d="M6.743 25.517a4.955 4.955 0 01-.628-.294 1.587 1.587 0 01-.316-.222 7.808 7.808 0 01-.767-.891.58.58 0 10-.933.689 9.009 9.009 0 00.879 1.023 2.634 2.634 0 00.561.409 6.057 6.057 0 00.778.366.58.58 0 10.425-1.079z"/><path data-name="Контур 56" d="M4.007 22.218a.58.58 0 00-1.086.406.58.58 0 101.086-.407z"/><path data-name="Контур 57" d="M10.569 23.607h-.057a2.03 2.03 0 10-.06 4.059h.062a2.03 2.03 0 10.054-4.059zm-.054 2.9h-.026a.87.87 0 11.023-1.74h.025a.87.87 0 11-.022 1.74z"/><path data-name="Контур 58" d="M17.25 21.926h-.057a2.03 2.03 0 10-.06 4.059h.062a2.03 2.03 0 10.054-4.059zm-.054 2.9h-.026a.87.87 0 01.023-1.74h.025a.87.87 0 11-.022 1.74z"/><path data-name="Контур 59" d="M24.069 18.328a2.03 2.03 0 10.287 2.857 2.03 2.03 0 00-.287-2.857zm-.611 2.123a.869.869 0 01-.675.319.858.858 0 01-.55-.2.87.87 0 01.552-1.543.86.86 0 01.55.2.872.872 0 01.12 1.223z"/><path data-name="Контур 60" d="M24.511 11.477a2.031 2.031 0 101.869 1.235 2.031 2.031 0 00-1.869-1.235zm.808 2.355a.871.871 0 11-.007-.665.871.871 0 01.007.665z"/><path data-name="Контур 61" d="M20.193 10.883a2.024 2.024 0 10.647 1.414 2.03 2.03 0 00-.647-1.414zm-.745 2.079a.87.87 0 11-.045-1.229.87.87 0 01.045 1.229z"/><path data-name="Контур 62" d="M12.695 15.202a.58.58 0 00-.477.25 6.832 6.832 0 00-1.263 2.65 1.74 1.74 0 003.48 0 6.833 6.833 0 00-1.263-2.65.58.58 0 00-.477-.25zm0 3.48a.581.581 0 01-.58-.579 4.333 4.333 0 01.58-1.245 4.336 4.336 0 01.58 1.245.581.581 0 01-.58.581z"/></g></g></svg>