<svg xmlns="http://www.w3.org/2000/svg" width="31.034" height="31.031"><path data-name="Контур 75" d="M30.534 16.018a.5.5 0 00.5-.5v-8.01a.5.5 0 00-.5-.5h-.5V3.5a.5.5 0 00-.5-.5h-2.5V.5a.5.5 0 00-.5-.5H4.505a.5.5 0 00-.5.5V3H1.5a.5.5 0 00-.5.5V7H.5a.5.5 0 00-.5.5v8.009a.5.5 0 00.5.5H1v12.022H.5a.5.5 0 00-.5.5v2a.5.5 0 00.5.5h5.006a.5.5 0 00.5-.5v-2a.5.5 0 00-.5-.5h-.5V16.018h1V26.53a.5.5 0 00.5.5h18.02a.5.5 0 00.5-.5V16.018h1v12.013h-.5a.5.5 0 00-.5.5v2a.5.5 0 00.5.5h5.006a.5.5 0 00.5-.5v-2a.5.5 0 00-.5-.5h-.5V16.018zM5.006 1h21.023v4H5.006zM2 4h2v1.5a.5.5 0 00.5.5h22.03a.5.5 0 00.5-.5V4h2v3H2zM1 8h29.034v7.008h-3v-3.5a.5.5 0 00-.5-.5H4.505a.5.5 0 00-.5.5v3.5H1zm4 22.025H1v-1h4zm-1-2H2V16.018h2zM5 15.01v-3h1v3zm2 11.012V12.013h17.027v14.016zm18.02-14.016h1v3h-1zm5.006 18.02h-4v-1h4zm-1-2h-2V16.018h2z" fill="#6e6eaf"/><path data-name="Контур 76" d="M22.525 13.015H8.509a.5.5 0 00-.5.5v5.006a.5.5 0 00.5.5h14.016a.5.5 0 00.5-.5v-5.006a.5.5 0 00-.5-.5zm-.5 5.006H9.009v-4.006h13.016z" fill="#6e6eaf"/><path data-name="Контур 77" d="M8.009 20.022h15.017v1H8.009z" fill="#6e6eaf"/><path data-name="Контур 78" d="M8.009 22.025h15.017v1H8.009z" fill="#6e6eaf"/><path data-name="Контур 79" d="M8.009 24.027h15.017v1H8.009z" fill="#6e6eaf"/><path data-name="Контур 80" d="M2.002 9.01h1v1h-1z" fill="#6e6eaf"/><path data-name="Контур 81" d="M28.031 9.01h1v1h-1z" fill="#6e6eaf"/><path data-name="Контур 82" d="M4.004 9.01h1v1h-1z" fill="#6e6eaf"/></svg>