<svg xmlns="http://www.w3.org/2000/svg" width="30.534" height="30.532"><path data-name="Контур 83" d="M30.53 15.221a.453.453 0 00-.129-.272L23.423 7.97a.448.448 0 10-.634.634l6.17 6.17a14.262 14.262 0 01-9.035-4.165 14.262 14.262 0 01-4.165-9.035l5.763 5.762a.448.448 0 10.634-.634L15.584.131A.449.449 0 0015.267 0a15.267 15.267 0 106.516 29.075.448.448 0 10-.383-.81A14.372 14.372 0 1114.827.9a15.43 15.43 0 00.175 1.932 12.384 12.384 0 00-6.5 2 .448.448 0 00-.132.62.46.46 0 00.62.132 11.494 11.494 0 016.182-1.855 15.161 15.161 0 004.119 7.516q.227.227.461.442l-1.25-.187a.788.788 0 01-.594-.431l-1.13-2.289a1.685 1.685 0 00-3.021 0l-1.13 2.289a.788.788 0 01-.594.431l-2.526.367a1.685 1.685 0 00-.934 2.873l1.829 1.785a.789.789 0 01.227.7l-.432 2.516a1.685 1.685 0 002.444 1.776l2.261-1.191a.788.788 0 01.734 0l2.259 1.188a1.685 1.685 0 002.444-1.776l-.437-2.516a.789.789 0 01.227-.7l1.828-1.782a1.676 1.676 0 00.5-1.061 15.087 15.087 0 004.342 1.68A11.54 11.54 0 117.616 6.626a.448.448 0 00-.594-.671 12.436 12.436 0 1020.68 9.573 15.421 15.421 0 001.929.178 14.356 14.356 0 01-6.706 11.721.448.448 0 00-.14.618.462.462 0 00.618.14 15.255 15.255 0 007.131-12.92.446.446 0 000-.045zm-9-1.928a.774.774 0 01-.2.808l-1.828 1.782a1.684 1.684 0 00-.484 1.491l.432 2.516a.788.788 0 01-1.144.831l-2.259-1.188a1.684 1.684 0 00-1.568 0l-2.259 1.188a.788.788 0 01-1.144-.831l.432-2.516a1.684 1.684 0 00-.484-1.491L9.202 14.1a.788.788 0 01.437-1.345l2.526-.367a1.684 1.684 0 001.268-.922l1.13-2.289a.788.788 0 011.414 0l1.13 2.289a1.684 1.684 0 001.268.922l2.526.367a.812.812 0 01.636.536z" fill="#6e6eaf"/></svg>