<svg xmlns="http://www.w3.org/2000/svg" width="47" height="47"><g transform="translate(.004 -.223)"><rect width="47" height="47" rx="23.5" transform="translate(-.004 .223)" fill="#7d3daf"/><g fill="#fff"><path d="M38.996 15.223c-.756-3.057-4.869-6.317-8-7a39.175 39.175 0 00-15 0 10.36 10.36 0 00-7 7 30.475 30.475 0 000 13c.725 2.927 3.986 6.139 7 7v3c0 1.235 1.144 1.891 2 1l3-3c.75.042 2.25 0 3 0a34.757 34.757 0 007-1c3.131-.683 7.244-3.943 8-7a30.475 30.475 0 000-13zm-3 12a8.041 8.041 0 01-5 5 37.149 37.149 0 01-8 1c-.054 0 .038-.039 0 0-.385.395-3 3-3 3l-3 2c-.2.2 0 .283 0 0v-6c0-.093.092.018 0 0-2.057-.458-5.494-3.005-6-5a24.28 24.28 0 010-11c.506-1.995 3.943-4.542 6-5a36.855 36.855 0 0114 0 8.038 8.038 0 015 5 24.254 24.254 0 010 11z"/><path d="M28 30.22c-.316-.1-.72.116-1 0-2.9-1.2-4.886-3.62-7-6a17.321 17.321 0 01-3-4c-.377-.767-.676-1.208-1-2a1.9 1.9 0 010-2 9.676 9.676 0 012-2c.468-.225.658.6 1 1 .738.857 1.451 1.007 2 2 .338.611.612 1.584 0 2-.149.1-.861.886-1 1-.122.1.083-.135 0 0a1.378 1.378 0 000 1 6.278 6.278 0 004 4c.334.139.615 1.045 1 1 .645-.075.548-1.631 1-2a2.138 2.138 0 012 0c.476.3.542.673 1 1s1.585.635 2 1c.4.351.225 1.523 0 2a4.49 4.49 0 01-2 2c-.244.131-.725-.085-1 0-.32-.093.271-.082 0 0zm-4.005-16.997c3.794.106 6.332 3.25 7 7 .114.639-.051 1.351 0 2 .021.273.294 0 0 0s.02.273 0 0c-.039-.54-.926-1.465-1-2-.393-2.826-2.187-5.5-5-6-.423-.076-.571.045-1 0-.271-.028-.94.337-1 0-.05-.282-.269-.986 0-1h1c3.794.106-.073 0 0 0z"/><path d="M28.996 21.223c-.006.047.028-.1 0 0-.1.381.133.384 0 0-.039-.114 0 .123 0 0 0-.8-.595-1.3-1-2a5.613 5.613 0 00-2-2c-.451-.221-.505-.918-1-1-.216-.036-.783.03-1 0-.263-.037-.012.259 0 0 .012-.243-.265-1.015 0-1a9.019 9.019 0 013 1c1.574.834 1.738 2.243 2 4 .012.08-.006-.08 0 0 .015.2-.015.74 0 1-.006.048-.015-.26 0 0z"/><path d="M26.996 21.223c-.317.006.033-.709 0-1-.023-.2-.952.2-1 0-.1-.389.327-.762 0-1-.154-.113-.817.053-1 0-.233-.067.232-.943 0-1-.252-.062-1.04.237-1 0 .036-.215.765-.017 1 0 1.471.106 1.85.269 2 2a8.844 8.844 0 010 1c-.046.2.144-.01 0 0-.318.006.144-.01 0 0z"/></g></g></svg>