<svg xmlns="http://www.w3.org/2000/svg" width="23.999" height="14"><path d="M19.915 8.028c-.388-.49-.277-.708 0-1.146 0-.005 3.208-4.431 3.538-5.932.164-.547 0-.949-.793-.949h-2.622a1.126 1.126 0 00-1.141.731A21.463 21.463 0 0115.671 6c-.61.6-.892.791-1.225.791-.164 0-.419-.192-.419-.739V.949c0-.656-.187-.949-.74-.949H9.161a.628.628 0 00-.668.591c0 .622.945.765 1.043 2.515v3.8c0 .832-.151.985-.486.985-.892 0-3.057-3.211-4.34-6.886C4.451.289 4.2 0 3.525 0H.9C.151 0 0 .345 0 .731 0 1.414.892 4.8 4.148 9.285 6.318 12.343 9.374 14 12.154 14c1.671 0 1.875-.368 1.875-1 0-2.922-.151-3.2.686-3.2.388 0 1.056.192 2.616 1.667C19.114 13.217 19.407 14 20.4 14h2.624c.748 0 1.127-.368.909-1.094-.494-1.527-3.866-4.668-4.018-4.878z"/></svg>