<svg xmlns="http://www.w3.org/2000/svg" width="47" height="47"><g transform="translate(-.346 -.223)"><rect width="47" height="47" rx="23.5" transform="translate(.346 .223)" fill="#1bd741"/><g fill="#fff"><path d="M7.346 40.223l2-8a18.585 18.585 0 01-2-9 15.653 15.653 0 0116-16c9.118 0 17 6.882 17 16a17.359 17.359 0 01-17 17 16.1 16.1 0 01-8-2zm9-5a13.2 13.2 0 007 2 14.211 14.211 0 0014-14c0-7.571-6.429-13-14-13a12.53 12.53 0 00-13 13 15.591 15.591 0 002 8l-1 5z"/><path d="M19.345 16.223h-1c-.337-.018-.745-.221-1 0-.52.452-1.745.862-2 2-.381 1.7.476 3.922 2 6s3.979 5.58 9 7c1.618.458 3.018.628 4 0a6.226 6.226 0 002-3c.054-.254-.764-.891-1-1l-3-2c-.235-.108-.842.795-1 1l-1 1c-.108.139-.834.058-1 0a10.607 10.607 0 01-6-5c-.078-.15-.11.128 0 0l2-2c.139-.161.084.2 0 0l-2-4c-.083-.194.212.012 0 0z"/></g></g></svg>