<svg xmlns="http://www.w3.org/2000/svg" width="13.733" height="13.729"><path d="M6.867 0a6.861 6.861 0 00-5.56 10.89l-.855 2.55 2.639-.84A6.864 6.864 0 106.867 0z" fill="#4caf50"/><path d="M10.862 9.698a1.937 1.937 0 01-1.35.969c-.359.076-.827.135-2.4-.517a8.6 8.6 0 01-3.418-3.019 3.921 3.921 0 01-.816-2.071 2.192 2.192 0 01.7-1.671 1 1 0 01.7-.246c.085 0 .161 0 .23.007.2.009.3.021.436.338.165.4.569 1.384.617 1.485a.408.408 0 01.029.371 1.186 1.186 0 01-.222.315c-.1.117-.2.206-.3.331-.092.109-.2.226-.08.427a6.1 6.1 0 001.114 1.384 5.048 5.048 0 001.61.993.434.434 0 00.484-.076 8.306 8.306 0 00.536-.71.384.384 0 01.493-.149c.186.068 1.166.549 1.368.65s.338.149.383.234a1.71 1.71 0 01-.115.955z" fill="#fafafa"/></svg>