<svg xmlns="http://www.w3.org/2000/svg" width="20.259" height="24"><g data-name="Group 147"><path data-name="Path 88" d="M19.909 12.154a2.559 2.559 0 00-2.19-1.991 68.067 68.067 0 00-7.586-.281 68.088 68.088 0 00-7.587.281 2.559 2.559 0 00-2.189 1.991A21.692 21.692 0 000 16.943a21.688 21.688 0 00.353 4.789 2.559 2.559 0 002.189 1.991 68.071 68.071 0 007.586.281 68.022 68.022 0 007.587-.281 2.559 2.559 0 002.189-1.991 21.7 21.7 0 00.355-4.789 21.72 21.72 0 00-.35-4.789zm-14.13 1.189H4.312v7.792H2.95V13.34H1.511v-1.276h4.268zm3.7 7.792H8.253v-.737a1.962 1.962 0 01-1.4.83.751.751 0 01-.789-.5 3.448 3.448 0 01-.108-1v-5.353H7.18v4.979a3.812 3.812 0 00.011.476c.029.19.122.286.286.286.246 0 .5-.189.774-.573v-5.168h1.225v6.757zm4.654-2.031a5.4 5.4 0 01-.124 1.361.969.969 0 01-.978.759 1.668 1.668 0 01-1.265-.747v.655h-1.233v-9.068h1.224v2.961a1.658 1.658 0 011.265-.733.968.968 0 01.978.762 5.188 5.188 0 01.124 1.358zm4.62-1.127h-2.452v1.2c0 .625.2.938.625.938a.526.526 0 00.547-.491 7.7 7.7 0 00.028-.83h1.249v.179c0 .395-.015.666-.026.789a1.745 1.745 0 01-.286.733 1.7 1.7 0 01-1.481.733 1.753 1.753 0 01-1.482-.692 2.617 2.617 0 01-.393-1.589v-2.369a2.63 2.63 0 01.378-1.592 1.74 1.74 0 011.466-.693 1.7 1.7 0 011.444.693 2.656 2.656 0 01.379 1.592v1.4z"/><path data-name="Path 89" d="M16.915 15.394q-.614 0-.614.937v.625h1.224v-.625c0-.624-.205-.937-.61-.937z"/><path data-name="Path 90" d="M12.373 15.394a.877.877 0 00-.611.3v4.118a.873.873 0 00.611.3c.353 0 .533-.3.533-.912v-2.884c-.001-.609-.18-.922-.533-.922z"/><path data-name="Path 91" d="M13.056 9.256a1.988 1.988 0 001.413-.842v.745h1.237V2.334h-1.237v5.219c-.274.387-.534.579-.782.579-.166 0-.263-.1-.29-.29a2.869 2.869 0 01-.015-.481V2.334h-1.233v5.4a3.449 3.449 0 00.11 1.015.76.76 0 00.797.507z"/><path data-name="Path 92" d="M4.443 5.452v3.711h1.372V5.452L7.467 0H6.078l-.936 3.6L4.167 0H2.724c.289.849.59 1.7.88 2.553a22.572 22.572 0 01.839 2.899z"/><path data-name="Path 93" d="M9.304 9.257a1.687 1.687 0 001.443-.7 2.671 2.671 0 00.384-1.606v-2.39a2.676 2.676 0 00-.384-1.608 1.835 1.835 0 00-2.884 0 2.654 2.654 0 00-.387 1.608v2.391a2.647 2.647 0 00.387 1.606 1.686 1.686 0 001.441.699zm-.59-4.944c0-.632.192-.947.59-.947s.59.315.59.947v2.872c0 .632-.191.948-.59.948s-.59-.316-.59-.948z"/></g></svg>